<?xml version="1.0" encoding="UTF-8" standalone="no"?>
<svg
   xmlns:dc="http://purl.org/dc/elements/1.1/"
   xmlns:cc="http://creativecommons.org/ns#"
   xmlns:rdf="http://www.w3.org/1999/02/22-rdf-syntax-ns#"
   xmlns:svg="http://www.w3.org/2000/svg"
   xmlns="http://www.w3.org/2000/svg"
   xmlns:sodipodi="http://sodipodi.sourceforge.net/DTD/sodipodi-0.dtd"
   xmlns:inkscape="http://www.inkscape.org/namespaces/inkscape"
   width="180.89211"
   height="63.44651"
   viewBox="0 0 180.89211 63.446511"
   version="1.1"
   id="svg4"
   sodipodi:docname="Logo_unesp.svg"
   inkscape:version="0.92.4 (5da689c313, 2019-01-14)">
  <metadata
     id="metadata10">
    <rdf:RDF>
      <cc:Work
         rdf:about="">
        <dc:format>image/svg+xml</dc:format>
        <dc:type
           rdf:resource="http://purl.org/dc/dcmitype/StillImage" />
        <dc:title />
      </cc:Work>
    </rdf:RDF>
  </metadata>
  <defs
     id="defs8" />
  <sodipodi:namedview
     pagecolor="#ffffff"
     bordercolor="#666666"
     borderopacity="1"
     objecttolerance="10"
     gridtolerance="10"
     guidetolerance="10"
     inkscape:pageopacity="0"
     inkscape:pageshadow="2"
     inkscape:window-width="1366"
     inkscape:window-height="715"
     id="namedview6"
     showgrid="false"
     fit-margin-top="0"
     fit-margin-left="0"
     fit-margin-right="0"
     fit-margin-bottom="0"
     inkscape:zoom="1.0710311"
     inkscape:cx="-19.45128"
     inkscape:cy="-78.988994"
     inkscape:window-x="-8"
     inkscape:window-y="-8"
     inkscape:window-maximized="1"
     inkscape:current-layer="svg4" />
  <path
     id="text"
     d="m 22.91786,18.243447 v 27.964958 h -6.712699 v -3.319208 c -0.97234,1.351776 -2.113947,2.371077 -3.408436,3.046677 -1.29324,0.676242 -2.748867,1.018519 -4.364318,1.018519 -2.813307,0 -4.922408,-0.805922 -6.325998,-2.414544 C 0.697329,42.92664 0,40.509883 0,37.305147 V 18.243441 h 6.856679 v 16.90178 c 0,1.992138 0.306545,3.406141 0.916746,4.258392 0.610337,0.851608 1.622995,1.272507 3.038235,1.272507 1.599656,0 2.877755,-0.527304 3.826033,-1.579481 0.948278,-1.05375 1.423438,-2.494742 1.423438,-4.311593 V 18.243447 h 6.856734 z m 82.16771,39.203047 v -39.17716 h 6.51938 v 3.784362 c 0.98872,-1.650657 2.09814,-2.84439 3.3118,-3.600047 1.21364,-0.755008 2.65282,-1.132442 4.30053,-1.132442 3.1506,0 5.715,1.360797 7.6767,4.074222 1.96101,2.721588 2.9422,6.294693 2.9422,10.711123 0,4.477861 -0.98119,8.113113 -2.9422,10.896156 -1.96172,2.783024 -4.4932,4.179766 -7.58828,4.179766 -1.63191,0 -3.08689,-0.37822 -4.36433,-1.132375 -1.27874,-0.755657 -2.34771,-1.853583 -3.19182,-3.293071 v 14.689466 h -6.66397 z m 17.94122,-25.032113 c 0,-2.810734 -0.48951,-4.960915 -1.46251,-6.445285 -0.97228,-1.482877 -2.37998,-2.221281 -4.2361,-2.221281 -1.81631,0 -3.20749,0.738396 -4.15578,2.213042 -0.94827,1.474646 -1.42284,3.625614 -1.42284,6.453532 0,2.64225 0.49856,4.68831 1.49483,6.128452 0.99692,1.439491 2.40397,2.159203 4.22849,2.159203 1.7286,0 3.07796,-0.736967 4.06741,-2.212328 0.98873,-1.47536 1.48651,-3.502736 1.48651,-6.075284 z m -37.00958,5.329397 c 0.15911,1.112107 0.61021,1.965149 1.359,2.55453 0.87702,0.691284 2.19412,1.045519 3.95425,1.045519 1.33501,0 2.36963,-0.249405 3.10333,-0.737755 0.72887,-0.485987 1.09297,-1.176555 1.09297,-2.072197 0,-1.264199 -1.36653,-2.225147 -4.09959,-2.853483 -1.11696,-0.257566 -2.00147,-0.483767 -2.66044,-0.667293 -3.33508,-0.930872 -5.64162,-2.022004 -6.93755,-3.292933 -1.2918,-1.265706 -1.94527,-2.985311 -1.94527,-5.145227 0,-2.861578 0.95104,-5.124891 2.8373,-6.795825 1.89112,-1.673071 4.45407,-2.511142 7.68498,-2.511142 3.42424,0 6.12024,0.83213 8.07096,2.493954 1.95484,1.664903 2.98959,4.004543 3.11913,7.024204 h -6.66469 c -0.048,-1.185574 -0.45804,-2.100053 -1.23759,-2.756815 -0.7714,-0.650034 -1.85682,-0.97434 -3.23975,-0.97434 -1.30209,0 -2.26617,0.210447 -2.90116,0.641083 -0.63484,0.42985 -0.9572,1.070222 -0.9572,1.930773 0,1.115115 1.70259,2.108928 5.11239,2.959677 0.77758,0.193264 1.39873,0.346786 1.85678,0.464364 3.40778,0.874016 5.73776,1.926262 6.98634,3.160458 1.24309,1.231264 1.87256,2.968056 1.87256,5.215547 0,3.17915 -1.0196,5.595981 -3.07114,7.261618 -2.04741,1.661895 -5.03142,2.493952 -8.93833,2.493952 -3.53667,0 -6.30269,-0.869505 -8.29526,-2.599504 -1.9233,-1.668624 -2.92023,-3.951418 -2.9888,-6.839173 h 6.88682 z M 59.629098,29.306317 h 10.079345 c -0.06444,-1.888097 -0.518358,-3.323792 -1.374793,-4.311666 -0.854991,-0.98701 -2.08989,-1.47536 -3.688885,-1.47536 -1.487878,0 -2.663118,0.499521 -3.521589,1.492621 -0.853613,0.990882 -1.350077,2.423566 -1.494106,4.29441 z m 9.983379,8.437461 h 6.832643 c -0.691165,2.950013 -2.084441,5.256644 -4.180562,6.927568 -2.099457,1.673068 -4.654275,2.511141 -7.668438,2.511141 -3.705341,0 -6.644873,-1.357791 -8.810116,-4.074865 -2.166789,-2.716435 -3.247428,-6.400424 -3.247428,-11.053481 0,-4.573671 1.066935,-8.185801 3.199371,-10.825766 2.135843,-2.645187 5.056141,-3.960367 8.762161,-3.960367 3.930265,0 6.963694,1.297995 9.099519,3.898999 2.132501,2.596498 3.199373,6.294693 3.199373,11.097616 0,0.536184 0,0.931662 -0.008,1.202835 -0.007,0.263582 -0.0322,0.518211 -0.0644,0.755583 H 59.629147 c 0.09605,2.195147 0.586276,3.845797 1.470114,4.960195 0.884492,1.115115 2.162589,1.668553 3.826752,1.668553 1.181399,0 2.147518,-0.253841 2.894205,-0.755656 0.755546,-0.506969 1.350078,-1.290403 1.792325,-2.352318 z M 26.945626,46.20852 V 18.243561 h 6.712757 v 3.319281 c 0.964733,-1.352555 2.089949,-2.371075 3.391978,-3.047396 1.302093,-0.675527 2.757057,-1.018592 4.356714,-1.018592 2.829109,0 4.944365,0.799119 6.350695,2.406378 1.406328,1.606404 2.105688,4.011996 2.105688,7.243552 V 46.20849 H 43.006723 V 29.306711 c 0,-2.01083 -0.314017,-3.442801 -0.93248,-4.293549 -0.619119,-0.860486 -1.623651,-1.291125 -3.022433,-1.291125 -1.616108,0 -2.894206,0.527232 -3.834225,1.580912 -0.940087,1.053747 -1.41524,2.493238 -1.41524,4.310877 V 46.208532 H 26.94561 Z"
     inkscape:connector-curvature="0"
     style="fill:#000000;stroke-width:1" />
  <path
     id="map"
     d="m 159.65687,17.71104 4.23524,-8.019144 h -8.46682 l 4.23157,8.019144 z m -5.12071,-7.456231 -4.23156,8.015204 h 8.46676 l -4.23518,-8.015204 z m 0,17.15205 4.23518,-8.019141 h -8.46677 l 4.23156,8.019141 z m -5.12079,-7.460169 -4.23156,8.01902 h 8.46682 l -4.23524,-8.01902 z m -0.88547,-0.558954 h -8.46681 l 4.23523,8.01914 4.23156,-8.01914 z m -4.23157,-9.132969 -4.23523,8.015205 h 8.46681 l -4.23156,-8.015205 z m 0.88548,-0.562892 4.23156,8.019145 4.23524,-8.019145 h -8.46682 z m 4.23156,-9.1329745 -4.23156,8.0151495 h 8.46682 L 149.41539,0.5589005 Z M 144.29833,8.015138 148.5299,-1.15e-5 h -8.46681 l 4.23523,8.0151495 z M 139.17755,0.5589005 134.94238,8.57405 h 8.46676 l -4.23157,-8.0151495 z m 0,17.1520595 4.23157,-8.019146 h -8.46676 l 4.23517,8.019146 z m -5.12071,-7.428465 -4.22069,7.987376 h 8.44135 l -4.22069,-7.987376 z"
     inkscape:connector-curvature="0"
     style="fill:#0093dd;stroke-width:1" />
</svg>
